<svg width="49" height="49" viewBox="0 0 49 49" fill="none" xmlns="http://www.w3.org/2000/svg">
<path fill-rule="evenodd" clip-rule="evenodd" d="M44.9167 24.5C44.9167 35.7761 35.7761 44.9167 24.5 44.9167C21.2333 44.9167 18.1463 44.149 15.4105 42.7852C14.688 42.4109 13.8535 42.3143 13.0646 42.5136L8.51988 43.7305C8.07004 43.8505 7.59654 43.8501 7.14691 43.7293C6.69728 43.6085 6.28734 43.3715 5.95823 43.0422C5.62912 42.7129 5.39243 42.3028 5.27191 41.8531C5.15138 41.4034 5.15127 40.9299 5.27159 40.4801L6.48638 35.9354C6.68454 35.1469 6.58722 34.3132 6.2128 33.5915C4.80738 30.7672 4.07834 27.6547 4.08334 24.5C4.08334 13.2239 13.2239 4.08334 24.5 4.08334C35.7761 4.08334 44.9167 13.2239 44.9167 24.5ZM24.5 14.8021C24.9061 14.8021 25.2956 14.9634 25.5828 15.2506C25.8699 15.5378 26.0313 15.9272 26.0313 16.3333V16.3538C28.2546 16.9152 30.1146 18.667 30.1146 21.0966C30.1146 21.5027 29.9533 21.8921 29.6661 22.1793C29.3789 22.4665 28.9894 22.6278 28.5833 22.6278C28.1772 22.6278 27.7877 22.4665 27.5006 22.1793C27.2134 21.8921 27.0521 21.5027 27.0521 21.0966C27.0521 20.3126 26.1823 19.2264 24.5 19.2264C22.8177 19.2264 21.9479 20.3126 21.9479 21.0966C21.9479 21.8806 22.8177 22.9688 24.5 22.9688C27.3277 22.9688 30.1146 24.9288 30.1146 27.9035C30.1146 30.333 28.2546 32.0868 26.0313 32.6463V32.6667C26.0313 33.0728 25.8699 33.4623 25.5828 33.7494C25.2956 34.0366 24.9061 34.1979 24.5 34.1979C24.0939 34.1979 23.7044 34.0366 23.4172 33.7494C23.1301 33.4623 22.9688 33.0728 22.9688 32.6667V32.6463C20.7454 32.0868 18.8854 30.333 18.8854 27.9035C18.8854 27.4974 19.0467 27.1079 19.3339 26.8207C19.6211 26.5335 20.0106 26.3722 20.4167 26.3722C20.8228 26.3722 21.2123 26.5335 21.4994 26.8207C21.7866 27.1079 21.9479 27.4974 21.9479 27.9035C21.9479 28.6875 22.8177 29.7736 24.5 29.7736C26.1823 29.7736 27.0521 28.6875 27.0521 27.9035C27.0521 27.1195 26.1823 26.0313 24.5 26.0313C21.6723 26.0313 18.8854 24.0713 18.8854 21.0966C18.8854 18.667 20.7454 16.9152 22.9688 16.3538V16.3333C22.9688 15.9272 23.1301 15.5378 23.4172 15.2506C23.7044 14.9634 24.0939 14.8021 24.5 14.8021Z" fill="white"/>
</svg>
