<svg width="18" height="18" viewBox="0 0 18 18" fill="none" xmlns="http://www.w3.org/2000/svg">
<path d="M10.5 1.65C10.015 1.551 9.515 1.501 9 1.5C4.85775 1.5 1.5 4.85775 1.5 9C1.5 13.1423 4.85775 16.5 9 16.5C13.1423 16.5 16.5 13.1423 16.5 9C16.499 8.485 16.449 7.985 16.35 7.5" stroke="white" stroke-width="1.5" stroke-linecap="round" stroke-linejoin="round"/>
<path d="M9 6.75001C8.17125 6.75001 7.5 7.25401 7.5 7.87501C7.5 8.49601 8.17125 9.00001 9 9.00001C9.82875 9.00001 10.5 9.50401 10.5 10.125C10.5 10.746 9.82875 11.25 9 11.25M9 6.75001C9.6525 6.75001 10.209 7.06276 10.4145 7.50001M9 6.75001V6.00001M9 11.25C8.3475 11.25 7.791 10.9373 7.5855 10.5M9 11.25V12M12.7485 5.25151L15.8805 2.11801M16.4985 4.86001L16.41 2.54251C16.41 1.99576 16.0838 1.65526 15.489 1.61251L13.146 1.50226" stroke="white" stroke-width="1.5" stroke-linecap="round" stroke-linejoin="round"/>
</svg>
