<svg width="29" height="29" viewBox="0 0 29 29" fill="none" xmlns="http://www.w3.org/2000/svg">
<path d="M14.5 9.96875C13.2983 9.96875 12.1457 10.4461 11.2959 11.2959C10.4462 12.1457 9.96877 13.2982 9.96877 14.5C9.96877 15.7018 10.4462 16.8543 11.2959 17.7041C12.1457 18.5538 13.2983 19.0312 14.5 19.0312C15.7018 19.0312 16.8543 18.5538 17.7041 17.7041C18.5539 16.8543 19.0313 15.7018 19.0313 14.5C19.0313 13.2982 18.5539 12.1457 17.7041 11.2959C16.8543 10.4461 15.7018 9.96875 14.5 9.96875ZM11.4792 14.5C11.4792 13.6988 11.7975 12.9305 12.364 12.3639C12.9305 11.7974 13.6988 11.4792 14.5 11.4792C15.3012 11.4792 16.0696 11.7974 16.6361 12.3639C17.2026 12.9305 17.5209 13.6988 17.5209 14.5C17.5209 15.3012 17.2026 16.0695 16.6361 16.636C16.0696 17.2026 15.3012 17.5208 14.5 17.5208C13.6988 17.5208 12.9305 17.2026 12.364 16.636C11.7975 16.0695 11.4792 15.3012 11.4792 14.5ZM11.7776 26.2619C12.6712 26.4752 13.5859 26.5827 14.5043 26.5827C15.4206 26.5819 16.3337 26.4736 17.2248 26.2601C17.4591 26.2037 17.6703 26.0764 17.8296 25.8957C17.989 25.7149 18.0888 25.4894 18.1154 25.2499L18.3196 23.3945C18.3543 23.0628 18.5062 22.7544 18.7479 22.5246C18.9897 22.2948 19.3054 22.1588 19.6385 22.1409C19.8602 22.1312 20.0807 22.1729 20.2837 22.2617L21.9796 23.0055C22.127 23.0718 22.2867 23.1067 22.4484 23.1077C22.6101 23.1088 22.7702 23.076 22.9185 23.0115C23.0677 22.9481 23.2012 22.8538 23.3112 22.7348C24.5577 21.3903 25.4886 19.7847 26.036 18.035C26.1078 17.8028 26.1056 17.5541 26.0299 17.3232C25.9541 17.0924 25.8084 16.8908 25.6131 16.7463L24.1063 15.6346C23.9268 15.5043 23.7807 15.3333 23.68 15.1357C23.5793 14.938 23.5268 14.7194 23.5268 14.4976C23.5268 14.2758 23.5793 14.0571 23.68 13.8595C23.7807 13.6619 23.9268 13.4909 24.1063 13.3605L25.6082 12.2513C25.8042 12.1066 25.9502 11.9045 26.026 11.673C26.1018 11.4415 26.1036 11.1921 26.0311 10.9596C25.4846 9.20914 24.5524 7.60355 23.3033 6.26098C23.1377 6.08445 22.9214 5.96353 22.6843 5.91485C22.4472 5.86617 22.2008 5.89211 21.979 5.9891L20.2837 6.73585C20.1085 6.815 19.9176 6.85668 19.7242 6.85668C19.3763 6.85573 19.041 6.72652 18.7824 6.49377C18.5238 6.26102 18.3601 5.94108 18.3226 5.59518L18.1172 3.74643C18.0906 3.50388 17.989 3.27566 17.8266 3.0936C17.6641 2.91154 17.4489 2.78472 17.2109 2.73083C16.3242 2.53304 15.4193 2.42795 14.5109 2.41727C13.5962 2.42816 12.6852 2.53344 11.7921 2.73143C11.5543 2.78477 11.3391 2.91111 11.1766 3.09277C11.0141 3.27444 10.9125 3.50234 10.8859 3.74462L10.6805 5.59458C10.6414 5.94105 10.4763 6.26105 10.2165 6.49358C9.95101 6.71885 9.61658 6.84673 9.26854 6.85608C9.07656 6.85595 8.88668 6.81604 8.7109 6.73887L7.01923 5.99212C6.79672 5.89417 6.54925 5.86783 6.31111 5.91676C6.07297 5.96569 5.85593 6.08746 5.69006 6.2652C4.44303 7.60834 3.51206 9.21328 2.96527 10.9626C2.89294 11.1951 2.89479 11.4443 2.97058 11.6757C3.04637 11.9071 3.19233 12.1091 3.38819 12.2537L4.89135 13.363C5.15988 13.5614 5.34964 13.8484 5.42714 14.1732C5.50463 14.498 5.46487 14.8397 5.31487 15.138C5.21509 15.3358 5.07022 15.5073 4.89196 15.6389L3.38758 16.7499C3.19196 16.8945 3.04616 17.0963 2.97038 17.3274C2.89461 17.5585 2.89261 17.8075 2.96467 18.0398C3.50994 19.791 4.44106 21.3977 5.68946 22.7414C5.85436 22.9193 6.0706 23.0412 6.30807 23.0904C6.54555 23.1396 6.79245 23.1135 7.0144 23.0157L8.71694 22.2684C8.89275 22.191 9.08246 22.1512 9.27458 22.1512H9.27942C9.62603 22.1519 9.96031 22.2799 10.2187 22.5109C10.4771 22.7419 10.6417 23.0598 10.6811 23.4042L10.8853 25.2511C10.9119 25.491 11.0119 25.7168 11.1716 25.8977C11.3313 26.0786 11.5429 26.2058 11.7776 26.2619ZM16.6496 24.8451C15.2359 25.1472 13.7738 25.1472 12.3601 24.8451L12.1764 23.2369C12.0963 22.5233 11.7564 21.8642 11.2216 21.3851C10.6868 20.906 9.99442 20.6404 9.2764 20.6389H9.27035C8.86977 20.6365 8.47322 20.7189 8.10673 20.8806L6.62894 21.5289C5.66975 20.448 4.93824 19.1849 4.4781 17.8151L5.78612 16.8484C6.15473 16.5766 6.45435 16.222 6.66083 15.8132C6.86731 15.4044 6.97488 14.9528 6.97488 14.4949C6.97488 14.0369 6.86731 13.5853 6.66083 13.1765C6.45435 12.7677 6.15473 12.4131 5.78612 12.1413L4.47871 11.1747C4.94105 9.80692 5.67257 8.5456 6.63015 7.46508L8.09948 8.11275C8.46658 8.27635 8.86422 8.36016 9.26612 8.35864H9.27217C9.99198 8.35715 10.6861 8.09076 11.222 7.61028C11.758 7.1298 12.0984 6.46884 12.1782 5.75348L12.3595 4.14639C13.0683 4.00447 13.7887 3.92842 14.5115 3.91923C15.2286 3.92829 15.9434 4.00381 16.6466 4.14579L16.8279 5.75227C16.9054 6.4676 17.2442 7.12915 17.7794 7.61012C18.3145 8.09109 19.0084 8.35762 19.7279 8.35864C20.1337 8.36819 20.5361 8.28339 20.9036 8.11093L22.3717 7.46387C23.3309 8.54355 24.0628 9.80537 24.5238 11.1741L23.2206 12.1365C22.8493 12.4071 22.5473 12.7615 22.339 13.171C22.1308 13.5805 22.0222 14.0334 22.0222 14.4927C22.0222 14.9521 22.1308 15.405 22.339 15.8145C22.5473 16.2239 22.8493 16.5784 23.2206 16.849L24.5286 17.8157C24.0664 19.1834 23.3351 20.4447 22.3778 21.5252L20.9036 20.8788C20.4839 20.6926 20.0262 20.6083 19.5677 20.6327C19.1092 20.6572 18.663 20.7897 18.2655 21.0194C17.868 21.2491 17.5304 21.5696 17.2804 21.9547C17.0303 22.3397 16.8749 22.7785 16.8267 23.235L16.6496 24.8451Z" fill="white"/>
</svg>
